HIERARCHY
ROOT root
{
	OFFSET 0.000000 0.000000 0.000000
	CHANNELS 6 Xposition Yposition Zposition Zrotation Yrotation Xrotation
	JOINT lhip
	{
		OFFSET 0.058581 -0.082280 -0.017664
		CHANNELS 3 Zrotation Yrotation Xrotation
		JOINT lknee
		{
			OFFSET 0.043451 -0.386469 0.008037
			CHANNELS 3 Zrotation Yrotation Xrotation
			JOINT lankle
			{
				OFFSET -0.014790 -0.426874 -0.037428
				CHANNELS 3 Zrotation Yrotation Xrotation
				JOINT ltoe
				{
					OFFSET 0.041054 -0.060286 0.122042
					CHANNELS 3 Zrotation Yrotation Xrotation
					End Site
					{
						OFFSET 0.000000 0.000000 0.000000
					}
				}
			}
		}
	}
	JOINT rhip
	{
		OFFSET -0.060310 -0.090513 -0.013543
		CHANNELS 3 Zrotation Yrotation Xrotation
		JOINT rknee
		{
			OFFSET -0.043257 -0.383688 -0.004843
			CHANNELS 3 Zrotation Yrotation Xrotation
			JOINT rankle
			{
				OFFSET 0.019056 -0.420046 -0.034562
				CHANNELS 3 Zrotation Yrotation Xrotation
				JOINT rtoe
				{
					OFFSET -0.034840 -0.062106 0.130323
					CHANNELS 3 Zrotation Yrotation Xrotation
					End Site
					{
						OFFSET 0.000000 0.000000 0.000000
					}
				}
			}
		}
	}
	JOINT lowerback
	{
		OFFSET 0.004439 0.124404 -0.038385
		CHANNELS 3 Zrotation Yrotation Xrotation
		JOINT upperback
		{
			OFFSET 0.004488 0.137956 0.026820
			CHANNELS 3 Zrotation Yrotation Xrotation
			JOINT chest
			{
				OFFSET -0.002265 0.056032 0.002855
				CHANNELS 3 Zrotation Yrotation Xrotation
				JOINT lowerneck
				{
					OFFSET -0.013390 0.211636 -0.033468
					CHANNELS 3 Zrotation Yrotation Xrotation
					JOINT upperneck
					{
						OFFSET 0.010113 0.088937 0.050410
						CHANNELS 3 Zrotation Yrotation Xrotation
						End Site
						{
							OFFSET 0.000000 0.000000 0.000000
						}
					}
				}
				JOINT lclavicle
				{
					OFFSET 0.071702 0.114000 -0.018898
					CHANNELS 3 Zrotation Yrotation Xrotation
					JOINT lshoulder
					{
						OFFSET 0.122921 0.045205 -0.019046
						CHANNELS 3 Zrotation Yrotation Xrotation
						JOINT lelbow
						{
							OFFSET 0.255332 -0.015649 -0.022946
							CHANNELS 3 Zrotation Yrotation Xrotation
							JOINT lwrist
							{
								OFFSET 0.265709 0.012698 -0.007375
								CHANNELS 3 Zrotation Yrotation Xrotation
								End Site
								{
									OFFSET 0.000000 0.000000 0.000000
								}
							}
						}
					}
				}
				JOINT rclavicle
				{
					OFFSET -0.082954 0.112472 -0.023707
					CHANNELS 3 Zrotation Yrotation Xrotation
					JOINT rshoulder
					{
						OFFSET -0.113228 0.046853 -0.008472
						CHANNELS 3 Zrotation Yrotation Xrotation
						JOINT relbow
						{
							OFFSET -0.260127 -0.014369 -0.031269
							CHANNELS 3 Zrotation Yrotation Xrotation
							JOINT rwrist
							{
								OFFSET -0.269108 0.006794 -0.006027
								CHANNELS 3 Zrotation Yrotation Xrotation
								End Site
								{
									OFFSET 0.000000 0.000000 0.000000
								}
							}
						}
					}
				}
			}
		}
	}
}
MOTION
Frames: 14
Frame Time: 0.033333
-1.009318 0.246423 1.000621 58.856237 -0.504456 86.318034 2.354113 5.738915 -12.484957 -5.175191 10.121914 -3.696817 -0.465275 16.917652 -11.886584 0.000000 -0.000000 0.000000 -3.146034 -5.919290 14.935853 1.898311 1.814616 11.080587 4.558139 -6.534597 -20.268494 0.000000 -0.000000 0.000000 0.786124 4.886491 3.995678 0.711906 -1.091184 -4.624346 -1.156829 -0.228331 5.509077 7.062010 -26.590027 -0.135109 6.426297 -32.337634 4.950527 -13.815903 25.116345 -0.390317 -59.710207 7.082130 7.500498 -3.840200 -24.554210 25.949596 -12.449360 -7.897564 -9.710316 12.128523 -12.540280 -10.978319 63.092755 1.337746 17.192721 6.262832 28.012945 28.664687 14.723813 5.080648 -2.575566 
-0.990003 0.238557 0.998309 58.130994 -0.115989 87.032788 2.722187 5.604090 -11.668415 -5.276626 9.675388 -4.217491 -0.326676 16.726716 -10.354158 0.000000 -0.000000 0.000000 -3.152735 -5.636967 14.958974 1.723867 2.359610 11.945866 5.160966 -6.048705 -19.911925 0.000000 -0.000000 0.000000 0.086966 4.695497 3.062496 0.879791 -1.276196 -4.480163 -1.190295 -0.325653 5.528564 6.901830 -25.926169 -0.074604 6.271169 -31.953857 5.252843 -14.007757 25.166727 -0.629125 -59.392877 6.366295 7.637855 -3.339391 -24.517871 24.896408 -11.846693 -7.694410 -10.088135 12.714359 -13.230022 -11.094228 63.116475 0.647365 17.436296 5.908039 28.039361 28.432910 14.525470 5.041193 -2.648664 
-0.969391 0.231532 0.998467 57.666221 -0.055819 87.707054 3.023550 5.478668 -11.312188 -5.638737 9.590633 -4.148073 0.183330 17.252709 -7.971294 0.000000 -0.000000 0.000000 -3.373367 -5.198154 14.739351 1.375496 2.849245 13.134613 5.901649 -5.896467 -18.863668 0.000000 -0.000000 0.000000 -0.879477 4.414335 2.181792 1.004212 -1.531551 -4.397737 -1.244088 -0.449427 5.625129 6.571240 -25.315681 -0.138319 6.029603 -31.323067 5.689251 -14.366415 25.025665 -1.006327 -58.958370 5.299484 7.807410 -2.676338 -24.383571 23.488684 -10.631549 -7.293756 -10.654660 13.270116 -14.052641 -11.220679 63.087190 -0.146736 17.702432 5.389738 28.016777 27.697694 13.856931 4.977266 -2.971394 
-0.948209 0.225404 1.001613 57.568369 -0.147770 88.058103 3.074344 4.722219 -11.158944 -5.833334 9.882859 -2.376166 0.747774 17.548033 -6.967756 0.000000 -0.000000 0.000000 -3.671594 -4.814726 14.636001 0.946526 3.150839 14.674599 6.780918 -5.954488 -17.232246 0.000000 -0.000000 0.000000 -1.690111 4.296421 2.028868 0.890691 -1.814783 -4.729607 -1.420249 -0.800710 5.674496 6.147489 -24.929155 -0.016746 5.953079 -30.654940 6.013423 -14.456862 24.774123 -1.299542 -58.512748 3.926955 7.812251 -1.882583 -24.457096 22.029629 -10.314112 -7.196358 -11.152772 13.705140 -15.017781 -11.487954 63.094042 -1.400137 17.883344 4.819145 27.992452 26.884588 13.979093 4.863329 -3.158737 
-0.926324 0.220240 1.005766 57.370270 -0.145111 88.347997 2.825556 3.929840 -10.485366 -5.852129 9.006134 -1.553552 1.798401 17.629299 -6.178979 0.000000 -0.000000 0.000000 -3.827726 -4.331568 14.162758 0.400454 3.523445 16.847339 7.573937 -6.154179 -15.165030 0.000000 -0.000000 0.000000 -2.233214 4.011939 1.929281 0.701145 -1.877524 -5.066941 -1.639924 -1.103749 5.696859 5.700469 -24.736413 0.335850 5.771460 -29.944969 6.420801 -14.538699 24.588860 -1.562606 -57.887064 2.613732 7.940883 -1.341273 -25.564785 20.774081 -10.259298 -7.195350 -11.722315 13.884339 -15.632848 -11.582214 62.798191 -2.698106 18.206836 4.678946 28.056857 26.448242 14.733354 4.719668 -3.150277 
-0.902903 0.215351 1.009365 56.692161 0.069538 88.491677 2.323294 3.700701 -9.296889 -5.329873 8.563914 -1.283805 3.584432 17.954248 -5.281703 0.000000 -0.000000 0.000000 -4.043835 -3.917006 13.532856 -0.085931 3.923633 19.375658 8.312162 -6.147366 -12.526356 0.000000 -0.000000 0.000000 -2.436950 3.513469 1.518610 0.552584 -1.750361 -5.037923 -1.818424 -1.147507 5.712278 5.007391 -24.604949 1.113364 5.535907 -28.780203 6.866408 -14.788509 24.328714 -1.819503 -56.950520 1.623277 8.261335 -1.301652 -27.706252 19.995443 -10.112584 -7.318466 -12.179978 13.881875 -15.784256 -11.455860 61.999937 -3.603717 18.604658 5.061275 28.185704 26.461427 15.771857 4.609823 -2.859660 
-0.878490 0.209904 1.012179 55.872869 0.352115 88.397837 2.035350 3.676302 -7.641187 -5.134222 8.499633 -1.287201 4.992009 18.412073 -5.312605 0.000000 -0.000000 0.000000 -4.463899 -3.721692 13.053117 -0.431385 4.405600 21.958076 9.291405 -5.965891 -9.300884 0.000000 -0.000000 0.000000 -2.662138 3.076548 0.869313 0.565839 -1.687474 -4.602121 -1.888198 -1.117425 5.772838 4.269215 -24.449648 2.012220 5.344185 -27.502113 7.294397 -14.945859 23.879416 -2.079221 -55.874918 0.687276 8.804505 -1.603920 -30.222449 19.932845 -9.821375 -7.640398 -12.690162 13.978525 -15.950001 -11.501108 60.889161 -4.237346 18.885089 5.338622 28.529126 26.489361 16.751912 4.432546 -2.304066 
-0.854193 0.204148 1.014744 55.296957 0.556655 88.385699 1.951714 3.680330 -6.029956 -5.457585 8.336513 -1.286796 5.673169 19.085994 -6.567946 0.000000 -0.000000 0.000000 -4.986621 -3.696273 12.199870 -0.612428 5.053269 25.027900 10.273849 -5.945212 -5.799499 0.000000 -0.000000 0.000000 -3.182927 2.612728 -0.087166 0.784347 -1.758640 -4.214440 -1.896693 -1.277181 5.969907 3.727056 -23.996202 2.719005 4.712962 -26.333979 8.242449 -14.953144 23.517152 -2.382021 -54.835401 -0.471353 9.324916 -1.858901 -32.210537 19.974422 -8.948610 -7.903920 -13.113074 14.370834 -16.482553 -11.811410 59.628514 -4.599941 19.196786 5.212479 28.870406 25.893058 17.084455 4.356449 -2.087520 
-0.830451 0.198644 1.017425 54.733638 0.745736 88.602097 1.802542 3.901124 -4.426802 -5.841272 8.049424 -1.778137 6.351693 19.656954 -7.738907 0.000000 -0.000000 0.000000 -5.549090 -3.539472 10.275537 -0.434326 5.658955 29.284338 11.049058 -6.009933 -1.954875 0.000000 -0.000000 0.000000 -3.694222 1.923789 -1.171977 1.065661 -1.793117 -4.082306 -1.993340 -1.542397 6.071273 3.352003 -23.372073 3.484475 4.024456 -25.134596 9.133551 -14.996532 23.396858 -2.738352 -53.773365 -1.715172 9.663379 -1.651529 -33.499523 19.535967 -8.161522 -8.032191 -13.392616 14.957594 -17.282383 -12.186787 58.327163 -4.690395 19.575346 4.946209 29.116380 24.829226 16.968962 4.421811 -2.196821 
-0.807293 0.193177 1.019862 54.385485 1.089128 88.544948 1.645588 4.324963 -2.436376 -5.997608 7.410992 -2.668934 7.131945 20.150566 -8.608698 0.000000 -0.000000 0.000000 -5.961083 -3.176331 7.845412 0.163057 5.710751 34.571617 11.563198 -6.288891 2.155844 0.000000 -0.000000 0.000000 -3.986149 0.786342 -1.874433 1.379628 -1.876105 -3.907549 -2.084734 -1.851389 6.143091 3.133951 -22.694298 3.967692 3.304631 -23.706506 9.686430 -15.174710 23.172381 -3.127591 -52.585109 -2.800591 9.672598 -1.256729 -34.558783 18.434066 -7.653116 -8.035175 -13.641955 15.376478 -17.707075 -12.476847 57.213931 -4.548289 19.958135 4.628044 29.416396 23.447070 16.910430 4.479912 -2.348724 
-0.785882 0.188853 1.021291 53.684232 1.492976 88.364157 1.587614 4.748676 -0.412077 -6.098011 6.800058 -3.587191 7.993171 20.946965 -9.285925 0.000000 -0.000000 0.000000 -6.327615 -2.214605 4.592377 1.044535 5.327538 40.676011 11.670116 -6.780410 6.763823 0.000000 -0.000000 0.000000 -3.909386 -0.277218 -1.796817 1.565125 -1.760587 -4.363276 -2.261119 -2.260073 6.151832 2.881635 -21.789238 4.362060 2.411836 -22.067681 10.392760 -15.352431 22.667145 -3.398067 -51.083538 -3.715753 9.572092 -1.030897 -35.280665 17.159665 -7.532087 -8.200285 -13.648240 15.691614 -17.826734 -12.679837 56.062979 -4.351897 20.466598 4.563587 29.950927 22.225474 17.211802 4.610200 -2.671172 
-0.765604 0.183797 1.021610 53.158820 1.809610 87.913802 1.730235 5.287840 1.806508 -6.423759 6.008373 -4.325365 8.790845 21.625512 -9.971035 0.000000 -0.000000 0.000000 -6.598566 -1.505818 1.261317 1.911709 4.853684 46.678727 11.241470 -7.711074 11.344704 0.000000 -0.000000 0.000000 -4.113417 -1.444627 -1.356484 1.836407 -1.731701 -4.938078 -2.418485 -2.713842 6.212974 2.732080 -20.586976 4.761844 1.387992 -20.459110 11.394923 -15.432431 21.981928 -3.608954 -49.159726 -4.681058 9.446044 -1.433048 -35.546858 16.472929 -7.169388 -8.509001 -13.505983 16.227323 -17.888837 -12.971265 54.745640 -4.131312 21.206559 4.819990 30.620015 21.415928 17.218746 4.856268 -2.826270 
-0.747033 0.178325 1.021543 52.883348 2.077469 87.303818 1.903851 5.997553 4.062022 -6.615283 5.065230 -4.899402 9.125795 22.082900 -10.737441 0.000000 -0.000000 0.000000 -6.631377 -1.092721 -2.311237 2.607550 3.952744 52.599003 11.003112 -8.617219 11.966044 0.000000 -0.000000 0.000000 -4.486611 -2.624033 -0.691454 2.089720 -1.856538 -5.478265 -2.538882 -3.252372 6.301216 2.854886 -18.864613 5.107617 0.305743 -18.831003 12.588287 -15.558591 21.105582 -3.897535 -47.038499 -5.578240 9.139737 -1.757054 -35.484455 15.709067 -6.909729 -8.665172 -12.788235 16.956759 -17.878050 -13.449229 53.513850 -4.138683 21.812223 4.928160 31.435693 20.853835 17.378378 4.972142 -2.718157 
-0.729982 0.172697 1.021853 52.788074 2.435721 86.649160 2.168753 6.808191 6.318860 -6.595187 3.946952 -5.512051 9.144028 22.470453 -11.459137 0.000000 -0.000000 0.000000 -6.295712 -0.791348 -5.954133 3.198181 2.745178 57.626380 10.500570 -9.102262 9.211701 0.000000 -0.000000 0.000000 -4.673790 -3.701825 -0.133833 2.267038 -2.035052 -5.644552 -2.666243 -3.744389 6.349784 2.990746 -17.087657 5.525380 -0.418761 -17.512814 13.458487 -15.727214 19.859812 -4.116519 -44.974768 -6.470694 8.795110 -1.692897 -35.201630 14.404686 -6.414134 -8.392102 -11.939206 17.588370 -17.805281 -13.978608 52.585907 -4.556201 21.977716 4.895878 32.277557 20.454467 17.463301 5.040938 -2.773774 
